# xmcd
#
# Track frame offsets:
#	150
#	18026
#	36754
#	52613
#	76624
#	109116
#	144649
#	162799
#
# Disc length: 2530 seconds
#
# Revision: 1
# Processed by: cddbd v1.5.2PL0 Copyright (c) Steve Scherf et al.
# Submitted via: audiograbber 1.83.01
#
DISCID=4d09e008
DTITLE=Airbourne - Black Dog Barking [special edition] CD 2
DYEAR=2013
DGENRE=Heavy Metal
TTITLE0=Raise The Flag [live at wacken 2011]
TTITLE1=Born To Kill [live at wacken 2011]
TTITLE2=Diamond In The Rough [live at wacken 2011]
TTITLE3=Chewin' The Fat [live at wacken 2011]
TTITLE4=Blackjack [live at wacken 2011]
TTITLE5=Bottom Of The Well [live at wacken 2011]
TTITLE6=Girls In Black [live at wacken 2011]
TTITLE7=No Way But The Hard Way [live at wacken 2011]
EXTD=
EXTT0=
EXTT1=
EXTT2=
EXTT3=
EXTT4=
EXTT5=
EXTT6=
EXTT7=
PLAYORDER=
